<svg width="31" height="24" viewBox="0 0 31 24" fill="none" xmlns="http://www.w3.org/2000/svg">
<path d="M4.74204 0C4.7412 0 4.74026 0 4.73943 0C4.44623 0 4.17047 0.114293 3.96223 0.322004C3.75171 0.532012 3.63574 0.811639 3.63574 1.10932V17.7434C3.63574 18.3534 4.13394 18.8509 4.74642 18.8524C7.32851 18.8586 11.6545 19.3968 14.6389 22.5199V5.11178C14.6389 4.90501 14.5861 4.71076 14.4864 4.55002C12.037 0.605389 7.32997 0.00605389 4.74204 0Z" fill="#5C504F"/>
<path d="M27.3639 17.7435V1.10932C27.3639 0.811639 27.2479 0.532012 27.0374 0.322004C26.8292 0.114293 26.5532 0 26.2603 0C26.2594 0 26.2584 0 26.2576 0C23.6698 0.00615827 18.9628 0.605493 16.5132 4.55013C16.4135 4.71087 16.3608 4.90511 16.3608 5.11189V22.5199C19.3452 19.3968 23.6712 18.8586 26.2533 18.8524C26.8657 18.8509 27.3639 18.3534 27.3639 17.7435Z" fill="#5C504F"/>
<path d="M29.891 3.83594H29.0866V17.7433C29.0866 19.3007 27.8177 20.5707 26.2579 20.5745C24.0677 20.5798 20.4565 21.008 17.8989 23.4286C22.3222 22.3456 26.9852 23.0496 29.6426 23.6552C29.9745 23.7308 30.3173 23.6527 30.5832 23.4408C30.8481 23.2295 31.0001 22.9135 31.0001 22.5744V4.94505C31.0002 4.3335 30.5025 3.83594 29.891 3.83594Z" fill="#5C504F"/>
<path d="M1.91345 17.7433V3.83594H1.10911C0.497672 3.83594 0 4.3335 0 4.94505V22.5741C0 22.9133 0.151974 23.2292 0.416884 23.4405C0.682524 23.6523 1.02509 23.7307 1.35743 23.6549C4.01488 23.0492 8.67794 22.3453 13.101 23.4283C10.5436 21.0078 6.93233 20.5796 4.74218 20.5744C3.18247 20.5707 1.91345 19.3007 1.91345 17.7433Z" fill="#5C504F"/>
</svg>
