<svg width="7" height="11" viewBox="0 0 7 11" fill="none" xmlns="http://www.w3.org/2000/svg">
<path d="M6.28694 5.07078L1.3918 0.17573C1.27858 0.0624223 1.12745 0 0.966293 0C0.80514 0 0.654003 0.0624223 0.540784 0.17573L0.180291 0.536134C-0.054284 0.770977 -0.054284 1.15267 0.180291 1.38715L4.29086 5.49772L0.17573 9.61285C0.0625117 9.72616 0 9.8772 0 10.0383C0 10.1995 0.0625117 10.3506 0.17573 10.464L0.536223 10.8243C0.649531 10.9376 0.800579 11 0.961732 11C1.12289 11 1.27402 10.9376 1.38724 10.8243L6.28694 5.92475C6.40043 5.81108 6.46276 5.65932 6.4624 5.49799C6.46276 5.33603 6.40043 5.18436 6.28694 5.07078Z" fill="#5C504F"/>
</svg>
