<svg width="25" height="25" viewBox="0 0 25 25" fill="none" xmlns="http://www.w3.org/2000/svg">
<path d="M24.9998 5.60945V4.79053H21.4785V5.60945H22.8297V19.3901H21.4785V20.209H24.9998V19.3901H23.6486V5.60945H24.9998Z" fill="#333E48"/>
<path d="M0.151936 16.8759L4.27324 7.56897C4.56057 6.9272 5.084 6.53857 5.79362 6.53857H5.94563C6.65481 6.53857 7.16171 6.92712 7.44874 7.56897L11.5702 16.8759C11.6547 17.0617 11.7054 17.2305 11.7054 17.3995C11.7054 18.092 11.1649 18.6494 10.4723 18.6494C9.86428 18.6494 9.45882 18.2947 9.22243 17.7541L8.42865 15.8963H3.22623L2.39856 17.8387C2.17892 18.3454 1.73987 18.6494 1.19931 18.6494C0.523432 18.6494 0 18.1089 0 17.4333C0 17.2474 0.067478 17.0617 0.151936 16.8759ZM7.4658 13.5991L5.82729 9.69725L4.18893 13.5991H7.4658Z" fill="#1E252B"/>
<path d="M12.938 15.9467V15.9129C12.938 13.9367 14.4413 13.0246 16.5864 13.0246C17.4986 13.0246 18.1575 13.1766 18.7993 13.3962V13.2442C18.7993 12.18 18.1405 11.589 16.8568 11.589C16.1474 11.589 15.5731 11.6903 15.0832 11.8423C14.9313 11.893 14.8299 11.9098 14.7115 11.9098C14.1205 11.9098 13.6475 11.4538 13.6475 10.8627C13.6475 10.4066 13.9346 10.0181 14.3399 9.866C15.1506 9.56198 16.0291 9.39307 17.2284 9.39307C18.6302 9.39307 19.6437 9.76464 20.2857 10.4065C20.9613 11.0821 21.2653 12.0787 21.2653 13.2949V17.4162C21.2653 18.1088 20.7079 18.6492 20.0153 18.6492C19.2721 18.6492 18.7823 18.1257 18.7823 17.5851V17.5682C18.1574 18.2607 17.2958 18.7167 16.046 18.7167C14.3399 18.7169 12.938 17.7373 12.938 15.9467ZM18.8329 15.3555V14.8995C18.3938 14.6968 17.8195 14.5617 17.1945 14.5617C16.0965 14.5617 15.421 15.0009 15.421 15.8116V15.8454C15.421 16.5379 15.9953 16.9432 16.8229 16.9432C18.0221 16.9433 18.8329 16.2846 18.8329 15.3555Z" fill="#1E252B"/>
</svg>
