<svg width="11" height="11" viewBox="0 0 11 11" fill="none" xmlns="http://www.w3.org/2000/svg">
<g clip-path="url(#clip0_212_3146)">
<path d="M5.92922 8.55574L10.8243 3.6606C10.9376 3.54738 11 3.39625 11 3.23509C11 3.07394 10.9376 2.9228 10.8243 2.80958L10.4639 2.44909C10.229 2.21451 9.84733 2.21451 9.61285 2.44909L5.50228 6.55966L1.38715 2.44453C1.27384 2.33131 1.1228 2.2688 0.961732 2.2688C0.800489 2.2688 0.649442 2.33131 0.536044 2.44453L0.17573 2.80502C0.0624218 2.91833 -3.49944e-08 3.06938 -4.20386e-08 3.23053C-4.90829e-08 3.39168 0.0624217 3.54282 0.17573 3.65604L5.07525 8.55574C5.18892 8.66923 5.34068 8.73156 5.50201 8.7312C5.66397 8.73156 5.81564 8.66923 5.92922 8.55574Z" fill="#544241"/>
</g>
<defs>
<clipPath id="clip0_212_3146">
<rect width="11" height="11" fill="white" transform="translate(11) rotate(90)"/>
</clipPath>
</defs>
</svg>
