<svg width="15" height="15" viewBox="0 0 15 15" fill="none" xmlns="http://www.w3.org/2000/svg">
<g clip-path="url(#clip0_212_3194)">
<path d="M14.1168 5.5067C14.0241 5.2201 13.7699 5.01654 13.4692 4.98944L9.38405 4.6185L7.76867 0.837564C7.64956 0.56047 7.3783 0.381104 7.07691 0.381104C6.77552 0.381104 6.50426 0.56047 6.38515 0.838212L4.76977 4.6185L0.683986 4.98944C0.383783 5.01719 0.13023 5.2201 0.0370377 5.5067C-0.0561549 5.79329 0.0299105 6.10764 0.257007 6.3058L3.34489 9.01389L2.43434 13.0248C2.36772 13.3198 2.48218 13.6246 2.72688 13.8015C2.85841 13.8965 3.01229 13.9449 3.16747 13.9449C3.30126 13.9449 3.43398 13.9088 3.55309 13.8376L7.07691 11.7315L10.5994 13.8376C10.8572 13.9926 11.1821 13.9785 11.4263 13.8015C11.6711 13.6241 11.7855 13.3191 11.7188 13.0248L10.8083 9.01389L13.8962 6.30634C14.1233 6.10764 14.21 5.79383 14.1168 5.5067Z" fill="#FF9900"/>
</g>
<defs>
<clipPath id="clip0_212_3194">
<rect width="14.1537" height="14.1537" fill="white" transform="translate(0 0.0770264)"/>
</clipPath>
</defs>
</svg>
