<svg version="1.1" id="Layer_1" xmlns="http://www.w3.org/2000/svg" xmlns:xlink="http://www.w3.org/1999/xlink" x="0px" y="0px"
	 width="100%" viewBox="0 0 512 512" enable-background="new 0 0 512 512" xml:space="preserve">
<path fill="#000000" opacity="1.000000" stroke="none" 
	d="
M285.000000,513.000000 
	C190.023056,513.000000 95.546112,513.000000 1.069162,513.000000 
	C1.046106,512.856445 1.002844,512.712830 1.002841,512.569275 
	C0.999984,342.110870 1.000000,171.652466 1.000000,1.097036 
	C171.560287,1.097036 342.120667,1.097036 512.840515,1.097036 
	C512.840515,171.666550 512.840515,342.333252 512.840515,513.000000 
	C437.129364,513.000000 361.314667,513.000000 285.000000,513.000000 
M360.991241,382.507812 
	C387.060059,370.159790 410.617340,353.919830 431.756409,334.494659 
	C453.262695,314.731995 473.255981,293.441986 488.961151,268.540894 
	C493.637238,261.126892 493.902618,252.710037 489.277802,246.196640 
	C478.588989,231.143005 467.351349,216.307373 454.834534,202.772064 
	C442.531525,189.467972 429.030304,177.053329 414.841064,165.775558 
	C401.496307,155.169052 387.017273,145.771713 372.214783,137.275360 
	C355.720520,127.807961 337.970093,120.872879 319.527832,115.732315 
	C301.307098,110.653496 282.754791,107.935555 263.966827,107.121475 
	C247.993561,106.429352 232.137421,108.228226 216.313446,110.858597 
	C195.601593,114.301460 175.997849,120.946495 157.004395,129.546829 
	C129.390793,142.050385 104.573601,159.024170 82.325966,179.419128 
	C60.673893,199.268143 40.575867,220.702652 24.834629,245.756348 
	C20.388948,252.832047 19.996374,261.107300 24.542898,267.653656 
	C34.144478,281.478485 44.187309,295.162323 55.478691,307.606934 
	C70.128418,323.752899 85.865875,338.927582 103.459679,352.058807 
	C125.258659,368.328583 148.563690,381.715424 173.968018,391.553345 
	C197.617981,400.711914 222.196976,405.236328 247.336823,406.861664 
	C255.540573,407.392029 263.865723,406.574310 272.101715,405.938019 
	C281.734863,405.193756 291.473602,404.689789 300.914520,402.813599 
	C321.522675,398.718201 341.370819,392.038696 360.991241,382.507812 
z"/>
<path fill="#90A4AD" opacity="1.000000" stroke="none" 
	d="
M360.673676,382.720886 
	C341.370819,392.038696 321.522675,398.718201 300.914520,402.813599 
	C291.473602,404.689789 281.734863,405.193756 272.101715,405.938019 
	C263.865723,406.574310 255.540573,407.392029 247.336823,406.861664 
	C222.196976,405.236328 197.617981,400.711914 173.968018,391.553345 
	C148.563690,381.715424 125.258659,368.328583 103.459679,352.058807 
	C85.865875,338.927582 70.128418,323.752899 55.478691,307.606934 
	C44.187309,295.162323 34.144478,281.478485 24.542898,267.653656 
	C19.996374,261.107300 20.388948,252.832047 24.834629,245.756348 
	C40.575867,220.702652 60.673893,199.268143 82.325966,179.419128 
	C104.573601,159.024170 129.390793,142.050385 157.004395,129.546829 
	C175.997849,120.946495 195.601593,114.301460 216.313446,110.858597 
	C232.137421,108.228226 247.993561,106.429352 263.966827,107.121475 
	C282.754791,107.935555 301.307098,110.653496 319.527832,115.732315 
	C337.970093,120.872879 355.720520,127.807961 372.214783,137.275360 
	C387.017273,145.771713 401.496307,155.169052 414.841064,165.775558 
	C429.030304,177.053329 442.531525,189.467972 454.834534,202.772064 
	C467.351349,216.307373 478.588989,231.143005 489.277802,246.196640 
	C493.902618,252.710037 493.637238,261.126892 488.961151,268.540894 
	C473.255981,293.441986 453.262695,314.731995 431.756409,334.494659 
	C410.617340,353.919830 387.060059,370.159790 360.673676,382.720886 
M286.575592,335.100494 
	C330.668274,317.256744 352.051636,268.261078 334.814484,224.570953 
	C317.577545,180.881470 268.214417,159.126083 224.773514,176.073486 
	C180.867645,193.202271 158.914017,242.119522 175.538574,285.779297 
	C192.421524,330.117737 241.195923,352.050079 286.575592,335.100494 
z"/>
<path fill="#FAFAFA" opacity="1.000000" stroke="none" 
	d="
M286.213745,335.242126 
	C241.195923,352.050079 192.421524,330.117737 175.538574,285.779297 
	C158.914017,242.119522 180.867645,193.202271 224.773514,176.073486 
	C268.214417,159.126083 317.577545,180.881470 334.814484,224.570953 
	C352.051636,268.261078 330.668274,317.256744 286.213745,335.242126 
z"/>
</svg>