<svg width="11" height="11" viewBox="0 0 11 11" fill="none" xmlns="http://www.w3.org/2000/svg">
<path d="M9.405 4.1985C9.71783 3.89211 9.9 3.47357 9.9 3.025C9.9 2.11522 9.15986 1.375 8.25 1.375C7.94939 1.375 7.65364 1.45763 7.39438 1.61401C7.30774 1.66639 7.27981 1.77899 7.33208 1.86575C7.38435 1.9525 7.49714 1.98015 7.58381 1.92805C7.78594 1.80613 8.01619 1.74167 8.25 1.74167C8.95755 1.74167 9.53333 2.31737 9.53333 3.025C9.53333 3.46077 9.31509 3.86244 8.94878 4.10001C8.64119 4.3018 8.25125 4.35997 7.89514 4.25855C7.79883 4.23079 7.69641 4.28701 7.66848 4.3844C7.64073 4.48179 7.69712 4.58322 7.79453 4.61106C7.94277 4.65349 8.09602 4.67498 8.25 4.67498C8.53828 4.67498 8.81693 4.59635 9.06432 4.45433C10.0055 4.79536 10.6333 5.68393 10.6333 6.69165V7.60833H8.96158C8.83173 6.3838 8.06135 5.31225 6.93765 4.80343C7.29523 4.43936 7.51665 3.94109 7.51665 3.39167C7.51667 2.27966 6.61199 1.375 5.5 1.375C4.38801 1.375 3.48333 2.27966 3.48333 3.39167C3.48333 3.94127 3.70487 4.43968 4.06265 4.8038C3.68448 4.97561 3.33375 5.21598 3.03628 5.51175C2.46602 6.08364 2.119 6.81766 2.03663 7.60837H0.366674V6.6917C0.366674 6.05683 0.614646 5.45823 1.06421 5.00678C1.31169 4.76087 1.61298 4.57327 1.9374 4.45537C2.18483 4.5968 2.46265 4.675 2.75 4.675C2.90398 4.675 3.05723 4.65352 3.20547 4.61108C3.30286 4.58324 3.35925 4.48181 3.33152 4.38442C3.30359 4.28703 3.20117 4.2309 3.10486 4.25857C2.74893 4.36017 2.35918 4.30207 2.05034 4.09958C1.68493 3.86244 1.46667 3.46079 1.46667 3.025C1.46667 2.31737 2.04246 1.74167 2.75 1.74167C2.98381 1.74167 3.21406 1.80613 3.41619 1.92805C3.5032 1.98015 3.61546 1.95222 3.66792 1.86575C3.72019 1.77901 3.69226 1.66639 3.60562 1.61401C3.34636 1.45763 3.05061 1.375 2.75 1.375C1.84014 1.375 1.1 2.11522 1.1 3.025C1.1 3.47323 1.28187 3.89144 1.5938 4.19755C1.30305 4.33271 1.03452 4.5193 0.804955 4.74734C0.285914 5.26868 0 5.95914 0 6.69167V7.79167C0 7.89293 0.0820059 7.975 0.183326 7.975H2.01665V9.44167C2.01665 9.54293 2.09866 9.625 2.19998 9.625H8.79998C8.90132 9.625 8.9833 9.54291 8.9833 9.44167V7.975H10.8166C10.918 7.975 11 7.89291 11 7.79167V6.69167C11 5.60768 10.37 4.64338 9.405 4.1985ZM3.85 3.39167C3.85 2.4819 4.59014 1.74167 5.5 1.74167C6.40986 1.74167 7.15 2.4819 7.15 3.39167C7.15 4.30145 6.40986 5.04167 5.5 5.04167C4.59014 5.04167 3.85 4.30143 3.85 3.39167ZM8.61667 9.25833H2.38333V7.975C2.38333 7.14373 2.70737 6.3609 3.29534 5.77115C3.60508 5.46307 3.98058 5.2241 4.38318 5.0695C4.70319 5.2832 5.08716 5.40833 5.5 5.40833C5.91353 5.40833 6.29817 5.28284 6.61848 5.06849C7.81683 5.52892 8.61667 6.68422 8.61667 7.975V9.25833Z" fill="#3A3A3A"/>
</svg>
