<svg width="26" height="25" viewBox="0 0 26 25" fill="none" xmlns="http://www.w3.org/2000/svg">
<path d="M1.08333 0.0833742C0.485025 0.0833742 0 0.568399 0 1.16671C0 1.76502 0.485025 2.25004 1.08333 2.25004H3.01091C3.16863 2.25004 3.32237 2.29967 3.45032 2.3919C3.57827 2.48413 3.67396 2.61428 3.72383 2.76392L7.29557 13.4812C7.45419 13.957 7.47435 14.4693 7.3527 14.9559L7.05859 16.1345C6.62705 17.8606 7.97072 19.5834 9.75 19.5834H22.75C23.3483 19.5834 23.8333 19.0984 23.8333 18.5C23.8333 17.9017 23.3483 17.4167 22.75 17.4167H9.75C9.32817 17.4167 9.05736 17.0706 9.15967 16.6613L9.38146 15.7755C9.41904 15.6254 9.50571 15.4922 9.62768 15.397C9.74966 15.3018 9.89996 15.25 10.0547 15.25H21.6667C22.1331 15.2503 22.5474 14.952 22.695 14.5095L25.5832 5.84281C25.8171 5.14105 25.2946 4.41637 24.5549 4.41671H7.10091C6.94318 4.41671 6.78945 4.36708 6.66149 4.27485C6.53353 4.18262 6.43783 4.05247 6.38795 3.90284L5.36165 0.823934C5.21403 0.381458 4.79978 0.0831303 4.33333 0.0833742H1.08333ZM8.66667 20.6667C7.47005 20.6667 6.5 21.6368 6.5 22.8334C6.5 24.03 7.47005 25 8.66667 25C9.86328 25 10.8333 24.03 10.8333 22.8334C10.8333 21.6368 9.86328 20.6667 8.66667 20.6667ZM21.6667 20.6667C20.4701 20.6667 19.5 21.6368 19.5 22.8334C19.5 24.03 20.4701 25 21.6667 25C22.8633 25 23.8333 24.03 23.8333 22.8334C23.8333 21.6368 22.8633 20.6667 21.6667 20.6667Z" fill="black"/>
</svg>
