<svg width="24" height="24" viewBox="0 0 24 24" fill="none" xmlns="http://www.w3.org/2000/svg">
<g clip-path="url(#clip0_212_354)">
<path d="M18.407 4.30762C18.0954 4.30762 17.8418 4.56119 17.8418 4.87278C17.8418 5.18437 18.0954 5.43795 18.407 5.43795C18.7186 5.43795 18.9721 5.18442 18.9721 4.87278C18.9721 4.56115 18.7186 4.30762 18.407 4.30762Z" fill="white"/>
<path d="M11.6393 6.62939C8.87656 6.62939 6.62891 8.87705 6.62891 11.6398C6.62891 14.4025 8.87656 16.6502 11.6393 16.6502C14.402 16.6502 16.6497 14.4025 16.6497 11.6398C16.6497 8.87709 14.402 6.62939 11.6393 6.62939Z" fill="white"/>
<path d="M16.8978 0H6.38172C2.86283 0 0 2.86283 0 6.38177V16.8978C0 20.4167 2.86283 23.2795 6.38172 23.2795H16.8978C20.4167 23.2795 23.2795 20.4167 23.2795 16.8978V6.38177C23.2795 2.86283 20.4167 0 16.8978 0ZM11.6398 18.0249C8.11895 18.0249 5.25467 15.1605 5.25467 11.6398C5.25467 8.11895 8.119 5.25471 11.6398 5.25471C15.1605 5.25471 18.0249 8.119 18.0249 11.6398C18.0249 15.1605 15.1605 18.0249 11.6398 18.0249ZM18.4068 6.81271C17.3371 6.81271 16.4668 5.94246 16.4668 4.87278C16.4668 3.80311 17.3371 2.93281 18.4068 2.93281C19.4764 2.93281 20.3467 3.80306 20.3467 4.87274C20.3467 5.94241 19.4764 6.81271 18.4068 6.81271Z" fill="white"/>
</g>
<defs>
<clipPath id="clip0_212_354">
<rect width="23.2795" height="23.2795" fill="white"/>
</clipPath>
</defs>
</svg>
