<svg width="21" height="26" viewBox="0 0 21 26" fill="none" xmlns="http://www.w3.org/2000/svg">
<path d="M13.9975 21.8318C13.9975 23.0821 13.3309 24.0391 12.2482 24.6646C11.166 25.2898 9.83241 25.2898 8.75215 24.6646C7.6692 24.0391 7.00293 23.0821 7.00293 21.8318" fill="black"/>
<path d="M10.4996 0C11.4915 0 12.2905 0.610093 12.2905 1.5483C12.2905 2.13882 12.3111 2.57944 12.6831 2.69231C15.8461 3.64519 17.8744 5.8787 17.8744 8.77926V13.6544C17.8744 15.8879 18.7903 16.3401 19.9429 17.1944C21.6122 18.4296 21.2311 21.0017 19.3157 21H1.68434C-0.231147 21.0017 -0.612213 18.4296 1.05705 17.1944C2.20831 16.3401 3.1256 15.8879 3.1256 13.6544V8.77926C3.1256 5.8787 5.15387 3.64519 8.31693 2.69231C8.68783 2.57944 8.70955 2.13882 8.70955 1.5483C8.7099 0.610093 9.50916 0 10.4996 0Z" fill="black"/>
</svg>
