<svg width="62" height="62" viewBox="0 0 62 62" fill="none" xmlns="http://www.w3.org/2000/svg">
<circle cx="31" cy="31" r="31" fill="#544241"/>
<path d="M39.5897 39.5137C39.4657 39.7284 39.2875 39.9069 39.0729 40.0311C38.8583 40.1553 38.6148 40.221 38.3669 40.2216C38.1127 40.2227 37.8628 40.1561 37.6428 40.0286C34.2565 38.2179 30.4399 37.3666 26.6051 37.5668C24.6752 37.6261 22.7562 37.8795 20.877 38.323C20.6909 38.3919 20.4926 38.4213 20.2945 38.4094C20.0964 38.3975 19.903 38.3446 19.7264 38.254C19.5499 38.1634 19.3941 38.0371 19.269 37.8831C19.1438 37.7291 19.052 37.5508 18.9994 37.3595C18.9469 37.1681 18.9346 36.9679 18.9635 36.7716C18.9923 36.5753 19.0617 36.3871 19.1671 36.219C19.2726 36.0509 19.4118 35.9066 19.576 35.7951C19.7401 35.6837 19.9257 35.6076 20.1208 35.5716C22.1945 35.0754 24.3131 34.7897 26.4442 34.7189C28.4819 34.6448 30.5216 34.7959 32.5262 35.1694C34.8326 35.5792 37.0491 36.3906 39.0748 37.5668C39.2389 37.6584 39.3828 37.7822 39.4981 37.9306C39.6133 38.0791 39.6974 38.2493 39.7455 38.431C39.7935 38.6126 39.8045 38.8021 39.7777 38.9882C39.751 39.1742 39.687 39.3529 39.5897 39.5137V39.5137Z" fill="white"/>
<path d="M42.2427 34.0126C42.0909 34.266 41.8765 34.476 41.62 34.6225C41.3636 34.769 41.0738 34.8472 40.7785 34.8493C40.4772 34.8503 40.1818 34.7666 39.9257 34.608C35.919 32.4618 31.3989 31.4598 26.8606 31.7118C24.571 31.7613 22.2939 32.0635 20.0706 32.6128C19.6439 32.7323 19.1872 32.6774 18.8009 32.4601C18.4147 32.2428 18.1306 31.8811 18.0111 31.4543C17.8916 31.0276 17.9466 30.5709 18.1638 30.1846C18.3811 29.7984 18.7429 29.5143 19.1696 29.3948C21.6173 28.7755 24.1272 28.4354 26.6514 28.3811C29.066 28.2782 31.4844 28.451 33.8598 28.896C36.5923 29.3916 39.2204 30.3492 41.6312 31.7278C42.0088 31.9558 42.2833 32.321 42.3973 32.747C42.5113 33.173 42.4559 33.6266 42.2427 34.0126V34.0126Z" fill="white"/>
<path d="M43.8668 29.0083C43.4988 29.0054 43.138 28.9055 42.821 28.7187C32.282 22.5562 18.6859 26.2247 18.4607 26.2569C17.9483 26.3536 17.4183 26.254 16.9761 25.9777C16.5339 25.7015 16.2118 25.269 16.0739 24.7662C15.936 24.2633 15.9924 23.727 16.2319 23.2639C16.4715 22.8007 16.8765 22.4447 17.3666 22.2666C20.3721 21.5349 23.4459 21.1197 26.5379 21.0276C29.5024 20.9182 32.4699 21.134 35.3874 21.6712C38.7386 22.2736 41.9609 23.4494 44.9127 25.1467C45.3033 25.378 45.6073 25.7309 45.7782 26.1515C45.949 26.5721 45.9773 27.0371 45.8586 27.4753C45.7399 27.9135 45.4809 28.3007 45.1211 28.5775C44.7614 28.8544 44.3208 29.0057 43.8668 29.0083V29.0083Z" fill="white"/>
</svg>
