<svg width="27" height="27" viewBox="0 0 27 27" fill="none" xmlns="http://www.w3.org/2000/svg">
<path d="M24.1907 22.2651L22.9851 7.07182C22.9102 6.09291 22.0821 5.32642 21.1005 5.32642H18.7188V8.85524C18.7188 9.29225 18.3651 9.64599 17.9281 9.64599C17.4916 9.64599 17.1373 9.29225 17.1373 8.85524V5.32642H9.86255V8.85524C9.86255 9.29225 9.50828 9.64599 9.0718 9.64599C8.63479 9.64599 8.28104 9.29225 8.28104 8.85524V5.32642H5.89935C4.9178 5.32642 4.08961 6.09291 4.01478 7.06971L2.80864 22.2672C2.71535 23.4844 3.1376 24.6958 3.96679 25.5909C4.79604 26.486 5.9716 27 7.19197 27H19.8079C21.0283 27 22.2039 26.486 23.0331 25.5909C23.8623 24.6957 24.2846 23.4843 24.1907 22.2651ZM17.0625 14.5279L12.9728 18.6176C12.8183 18.7721 12.6159 18.8496 12.4135 18.8496C12.211 18.8496 12.0086 18.7721 11.8542 18.6176L9.93743 16.7009C9.62851 16.392 9.62851 15.8917 9.93743 15.5828C10.2463 15.2739 10.7472 15.2739 11.0556 15.5828L12.4135 16.9402L15.9444 13.4093C16.2528 13.1009 16.7536 13.1009 17.0625 13.4093C17.3714 13.7182 17.3714 14.219 17.0625 14.5279Z" fill="#5C504F"/>
<path d="M13.5001 0C10.6223 0 8.28125 2.34162 8.28125 5.21938V5.32638H9.86275V5.21938C9.86275 3.21353 11.4943 1.58145 13.5002 1.58145C15.506 1.58145 17.1376 3.21353 17.1376 5.21938V5.32638H18.719V5.21938C18.719 2.34162 16.3779 0 13.5001 0Z" fill="#5C504F"/>
</svg>
