<svg width="14" height="14" viewBox="0 0 14 14" fill="none" xmlns="http://www.w3.org/2000/svg">
<g clip-path="url(#clip0_212_3766)">
<path d="M11.0833 7.02681C10.7607 7.02681 10.5 7.28818 10.5 7.61011V12.2768C10.5 12.5982 10.2386 12.8601 9.9167 12.8601H1.75C1.42796 12.8601 1.1667 12.5982 1.1667 12.2768V4.11011C1.1667 3.78871 1.42796 3.52681 1.75 3.52681H6.4167C6.73927 3.52681 7 3.26544 7 2.94351C7 2.62148 6.73927 2.36011 6.4167 2.36011H1.75C0.785172 2.36011 0 3.14528 0 4.11011V12.2768C0 13.2416 0.785172 14.0268 1.75 14.0268H9.9167C10.8815 14.0268 11.6667 13.2416 11.6667 12.2768V7.61011C11.6667 7.28754 11.4059 7.02681 11.0833 7.02681Z" fill="white"/>
<path d="M5.46965 6.49545C5.42885 6.53625 5.4014 6.58817 5.38976 6.64413L4.97736 8.70688C4.95813 8.80247 4.98847 8.90106 5.05725 8.97049C5.11269 9.02592 5.18735 9.05562 5.26383 9.05562C5.28241 9.05562 5.30174 9.05391 5.32097 9.04985L7.38307 8.63745C7.44022 8.6257 7.49213 8.59836 7.5324 8.55745L12.1477 3.94212L10.0856 1.88013L5.46965 6.49545Z" fill="white"/>
<path d="M13.5725 0.453922C13.0038 -0.114849 12.0786 -0.114849 11.5104 0.453922L10.7031 1.2612L12.7652 3.32331L13.5725 2.51592C13.8479 2.2412 13.9995 1.87484 13.9995 1.48519C13.9995 1.09554 13.8479 0.729176 13.5725 0.453922Z" fill="white"/>
</g>
<defs>
<clipPath id="clip0_212_3766">
<rect width="14" height="14" fill="white"/>
</clipPath>
</defs>
</svg>
